<svg xmlns="http://www.w3.org/2000/svg" viewBox="0 0 48 48" fill="none">
<g fill="#63D48C"><circle cx="19" cy="13" r="5"/><circle cx="26" cy="9.5" r="6.5"/><circle cx="32" cy="13.5" r="5"/><rect x="16" y="12.5" width="17" height="5.5" rx="2.75"/></g>
<path d="M22.80 35.00 C21.04 32.80 18.40 31.26 18.40 28.20 L18.40 24.80 L19.45 19.80 L20.50 24.80 L20.50 28.20 L21.43 28.20 L21.43 24.80 L22.48 19.80 L23.53 24.80 L23.53 28.20 L24.47 28.20 L24.47 24.80 L25.52 19.80 L26.57 24.80 L26.57 28.20 L27.50 28.20 L27.50 24.80 L28.55 19.80 L29.60 24.80 L29.60 28.20 C29.60 31.26 26.96 32.80 25.20 35.00 L26.00 45.80 A2.00 2.00 0 0 1 22.00 45.80 Z" fill="#63D48C"/>
</svg>
